<?xml version="1.0" encoding="UTF-8"?>
<svg id="automation_text_dark" xmlns="http://www.w3.org/2000/svg" viewBox="0 0 90 90">
  <defs>
    <style>
      .cls-1 {
        stroke: #1f3439;
      }

      .cls-1, .cls-2, .cls-3, .cls-4, .cls-5, .cls-6, .cls-7 {
        stroke-linecap: round;
        stroke-linejoin: round;
      }

      .cls-1, .cls-2, .cls-4 {
        fill: #fafcfd;
      }

      .cls-1, .cls-4, .cls-5 {
        stroke-width: 1.37px;
      }

      .cls-8 {
        fill: #ed6b4f;
      }

      .cls-2 {
        stroke-width: 1.55px;
      }

      .cls-2, .cls-3, .cls-5 {
        stroke: #203439;
      }

      .cls-3 {
        stroke-width: 1.89px;
      }

      .cls-3, .cls-5, .cls-6 {
        fill: none;
      }

      .cls-9 {
        fill: #7ed3f4;
      }

      .cls-4 {
        stroke: #20353a;
      }

      .cls-10 {
        fill: #f8c990;
      }

      .cls-11 {
        fill: #2b4a93;
      }

      .cls-12 {
        fill: #f7c3bf;
      }

      .cls-6 {
        stroke: #2a4893;
        stroke-width: 1.79px;
      }

      .cls-7 {
        fill: #fff;
        stroke: #2a4a94;
        stroke-width: .5px;
      }

      .cls-13 {
        fill: #f69b8b;
      }

      .cls-14 {
        fill: #faaa46;
      }

      .cls-15 {
        fill: #203439;
      }
    </style>
  </defs>
  <g id="Generative_Object" data-name="Generative Object">
    <g>
      <path class="cls-8" d="M60.89,85.1c-13.9.77-30.64.4-44.66,0-.22-4.32,2.07-9.31,6.78-9.97,3.88-.54,28.43-.59,31.79.17,3.93.89,6.8,5.88,6.09,9.8Z"/>
      <path class="cls-14" d="M27.57,51.58s-.06.1-.09.15c-.43-.37-.4-.06-.74-.53-4.85-6.7-8.02-20.71-12.76-28.14l-.07-.53c-.06,0-.12-.02-.18-.03.06.01.12.02.18.03,3.19.52,6.41-.79,8.34-3.38l1.18.55,14.61,24.23.17,1.6c-4.44.21-8.26,2.13-10.65,6.04Z"/>
      <path class="cls-14" d="M60.05,7.12c-.35,1.91.25,3.83,1.61,5.23l.16.42-37,4.87-.68.18c-.13-.19-.23-.4-.36-.59l-.37-.17c.38-.99.57-2.03.57-3.08,0-1.42-.36-2.84-1.03-4.1l37.1-2.75Z"/>
      <path class="cls-13" d="M28.26,72.73c7.32-.18,15.55-.32,22.82,0,4.22.19,7.14.18,10.06,3.95,1.11,1.44,2.8,6.35,2.17,8.03-.25.67-1.71.35-2.41.39.71-3.92-2.16-8.9-6.09-9.8-3.37-.76-27.92-.72-31.79-.17-4.71.66-7,5.64-6.78,9.97-.92-.03-1.85.02-2.76,0-.52-5.32,1.99-10.18,7.22-11.96,1.72-.59,3.27-.33,5-.41.85-.04,1.72.02,2.57,0Z"/>
      <path class="cls-12" d="M70.48,27.01l.6-.15,4.91-1.92.51-.25c-.02-.05-.04-.11-.07-.16.02.05.04.11.07.16.61,1.45,1.21,2.9,1.82,4.34l.07.16c-.05,0-.11.06-.17.06-.85.04-5.57,2.26-5.86,2.13l-.07-.16c-.62-1.39-1.17-2.83-1.8-4.22Z"/>
      <path class="cls-10" d="M71.35,10.31c-1.97.55-.61-1.63-.82-2.97-.42-2.6-4.3-5.02-6.79-3.69l-.15-.9c4.77-1.98,9.61,2.74,7.76,7.56Z"/>
      <g>
        <path class="cls-14" d="M50.93,56.4c.83,4.74-.26,10.76.17,15.64l-.02.69c-7.28-.32-15.51-.18-22.82,0,.66-7.03-2.46-19.21,5.4-23.03,5.22-2.53,10.5-.42,13.49,4.21,1.34,2.07.08,2.9,3.78,2.49Z"/>
        <path class="cls-2" d="M37.01,52.45c8.44-1.77,9.88,12.13.52,11-6.41-.77-6.69-9.7-.52-11Z"/>
      </g>
      <g>
        <path class="cls-14" d="M63.59,2.75l.15.9c2.49-1.33,6.37,1.1,6.79,3.69.22,1.34-1.15,3.52.82,2.97-.18.46-.41.89-.69,1.29l.21.12c1.85,4.27,3.75,8.52,5.56,12.81.02.05.04.11.07.16l-.51.25-4.91,1.92-.6.15c-1.19-2.6-4.43-10.93-5.85-12.64-.66-.8-1.91-1.17-2.82-1.6l-.16-.42c-1.35-1.39-1.96-3.31-1.61-5.23.15-.79.44-1.53.89-2.19.65-.98,1.57-1.73,2.65-2.18Z"/>
        <path class="cls-4" d="M65.01,5.83c.07-.03.14-.05.21-.07,3.01-.85,4.39,3.79,1.31,4.66s-4.33-3.55-1.51-4.6Z"/>
      </g>
      <g>
        <path class="cls-10" d="M60.94,4.93c-.44.67-.74,1.41-.89,2.19l-37.1,2.75c.67,1.25,1.03,2.67,1.03,4.1,0,1.05-.2,2.1-.57,3.08l.37.17c.13.19.23.4.36.59,5.85,8.42,10.49,18.42,16.23,27l.11.63c5.33,1.1,9.52,5.67,10.45,10.96-3.7.4-2.44-.42-3.78-2.49-2.99-4.63-8.27-6.75-13.49-4.21-7.86,3.82-4.74,15.99-5.4,23.03-.85.02-1.72-.04-2.57,0l-.02-.69c.57-6.19-1.45-14.78,1.81-20.31.03-.05.06-.1.09-.15,2.39-3.91,6.2-5.83,10.65-6.04l-.17-1.6-14.61-24.23-1.18-.55c-1.93,2.59-5.15,3.89-8.34,3.38-.06,0-.12-.02-.18-.03-15.17-2.79-2.93-25.66,7.8-14.58l.53-.16,38.49-2.92.38.08Z"/>
        <g>
          <path class="cls-14" d="M14.59,7.25c9.43-.82,9.88,13.21,1.37,13.75s-9.94-13-1.37-13.75Z"/>
          <path class="cls-1" d="M14.31,10.09c.07-.01.13-.03.2-.04,5.19-.86,6.54,7.08,1.3,7.94-5.12.84-6.53-6.83-1.5-7.9Z"/>
        </g>
      </g>
    </g>
    <g>
      <line class="cls-5" x1="60.56" y1="4.85" x2="22.06" y2="7.77"/>
      <path class="cls-5" d="M13.99,23.06c4.73,7.43,7.9,21.44,12.76,28.14"/>
      <path class="cls-5" d="M65.06,14.04c2.18.27,4.32-.64,5.6-2.44.28-.4.51-.83.69-1.29,1.86-4.82-2.99-9.54-7.76-7.56-1.08.45-2,1.2-2.65,2.18-.44.67-.74,1.41-.89,2.19-.35,1.91.25,3.83,1.61,5.23"/>
      <path class="cls-3" d="M13.47,85.1c-.52-5.32,1.99-10.18,7.22-11.96,1.72-.59,3.27-.33,5-.41.85-.04,1.72.02,2.57,0,7.32-.18,15.55-.32,22.82,0,4.22.19,7.14.18,10.06,3.95,1.11,1.44,2.8,6.35,2.17,8.03-.25.67-1.71.35-2.41.39-13.9.77-30.64.4-44.66,0-.92-.03-1.85.02-2.76,0Z"/>
      <path class="cls-3" d="M72.35,31.39c-2.74,3.83-1.15,6.61,2.28,9.16"/>
      <path class="cls-5" d="M78.38,29.19l-.17.06c-.85.04-5.57,2.26-5.86,2.13"/>
      <path class="cls-15" d="M78.4,28.25c3.11.23,5.21,3.16,5.56,6.05.23,1.43-.49,2.49-.79,3.84-.17.53-.76,1.07-1.32.7-.57-.48-.22-1.79-.13-2.5,1.28-2.14-.96-6.08-3.38-6.2-1.25-.04-1.21-1.91.05-1.89h0Z"/>
      <path class="cls-3" d="M51.1,72.04c-.43-4.88.66-10.89-.17-15.64-.92-5.29-5.12-9.86-10.45-10.96-.87-.18-1.43.06-2.27.1-4.44.21-8.26,2.13-10.65,6.04-.03.05-.06.1-.09.15-3.26,5.53-1.24,14.12-1.81,20.31"/>
      <path class="cls-5" d="M24.82,17.63l37-4.87c.91.43,2.16.8,2.82,1.6,1.42,1.71,4.66,10.04,5.85,12.64.63,1.39,1.18,2.82,1.8,4.22l.07.16"/>
      <line class="cls-5" x1="75.99" y1="24.94" x2="71.07" y2="26.86"/>
      <path class="cls-5" d="M70.87,11.72c1.85,4.27,3.75,8.52,5.56,12.81.02.05.04.11.07.16.61,1.45,1.21,2.9,1.82,4.34l.07.16"/>
      <path class="cls-5" d="M40.37,44.82c-5.75-8.58-10.38-18.58-16.23-27-.13-.19-.23-.4-.36-.59"/>
      <path class="cls-5" d="M23.98,13.97c0-1.42-.36-2.84-1.03-4.1-.38-.71-.86-1.36-1.42-1.94C10.81-3.15-1.44,19.72,13.73,22.51c.06.01.12.02.18.03,3.19.52,6.41-.79,8.34-3.38.48-.65.87-1.35,1.16-2.11.38-.99.57-2.03.57-3.08Z"/>
    </g>
  </g>
  <path class="cls-6" d="M81.98,41.11c1.1-.44,1.13-1.81,0-2.24-.24-.09-4.74-.12-5.05-.05-1.19.28-1.42,1.71-.39,2.18.25.11,5.19.21,5.44.11Z"/>
  <path class="cls-6" d="M75.82,48.84c2.09.1,4.86.13,6.94,0"/>
  <path class="cls-6" d="M81.45,41.42c.08,1.04-.31,3.35-.07,4.26.2.75,1.41,2.3,1.88,3.06.77,1.24,4.52,6.53,4.63,7.44.22,1.82-1.52,1.92-2.76,1.97-2.76.12-10.2.34-12.62-.08-1.18-.21-2.1-1.16-1.58-2.37.83-1.93,3.27-4.98,4.49-6.94.45-.72,1.56-2.18,1.79-2.85.31-.89-.17-3.36.03-4.42"/>
  <g>
    <path class="cls-9" d="M75.66,48.97c.11.1.25.06.38.07,2,.09,4.63.12,6.62,0,.16-.01.34.05.47-.09.74,1.18,4.31,6.22,4.42,7.09.21,1.73-1.45,1.83-2.63,1.88-2.63.11-9.72.33-12.03-.08-1.12-.2-2-1.1-1.5-2.26.79-1.84,3.12-4.75,4.28-6.61Z"/>
    <path class="cls-11" d="M76.08,52.95c1.4-.38,1.82,1.4.75,1.8-1.22.47-1.66-1.56-.75-1.8Z"/>
    <path class="cls-7" d="M81.46,52.23c1.81-.09,1.96,2.68.14,2.77s-1.95-2.68-.14-2.77Z"/>
  </g>
</svg>